<svg width="45" height="45" viewBox="0 0 45 45" fill="none" xmlns="http://www.w3.org/2000/svg">
<path d="M19.2856 1.85624C20.2629 1.29202 21.3714 0.99498 22.4999 0.99498C23.6283 0.99498 24.7369 1.29202 25.7142 1.85624L38.7706 9.39374C39.7478 9.95796 40.5594 10.7695 41.1236 11.7467C41.6878 12.7239 41.9849 13.8325 41.9849 14.9609V30.0391C41.9849 31.1675 41.6878 32.2761 41.1236 33.2533C40.5594 34.2305 39.7478 35.042 38.7706 35.6062L25.7142 43.1437C24.7369 43.708 23.6283 44.005 22.4999 44.005C21.3714 44.005 20.2629 43.708 19.2856 43.1437L6.22918 35.6062C5.25194 35.042 4.44042 34.2305 3.8762 33.2533C3.31198 32.2761 3.01492 31.1675 3.01489 30.0391V14.9609C3.01492 13.8325 3.31198 12.7239 3.8762 11.7467C4.44042 10.7695 5.25194 9.95796 6.22918 9.39374L19.2856 1.85624Z" fill="#F66DBC"/>
<path d="M28.8322 29.565C29.1537 30.7382 27.8728 31.5932 26.9117 30.952L22.5355 28.0704L18.1576 30.952C17.1965 31.5932 15.9156 30.6321 16.2355 29.565L17.4103 24.5475L13.3538 21.2368C12.3928 20.4895 12.9263 18.9948 14.1012 18.8904L19.3324 18.5689L21.2546 13.6575C21.6805 12.5904 23.2828 12.5904 23.7087 13.6575L25.6308 18.5689M28.3019 18.8888V26.362M32.143 22.6254H24.6697" stroke="white" stroke-width="1.5" stroke-miterlimit="10" stroke-linecap="round" stroke-linejoin="round"/>
</svg>
